<?xml version="1.0" encoding="utf-8"?>
<!-- Generator: Adobe Illustrator 16.0.0, SVG Export Plug-In . SVG Version: 6.00 Build 0)  -->
<!DOCTYPE svg PUBLIC "-//W3C//DTD SVG 1.1//EN" "http://www.w3.org/Graphics/SVG/1.1/DTD/svg11.dtd">
<svg version="1.1" id="Capa_1" xmlns="http://www.w3.org/2000/svg" xmlns:xlink="http://www.w3.org/1999/xlink" x="0px" y="0px"
	 width="396.292px" height="396.291px" viewBox="0 0 396.292 396.291" enable-background="new 0 0 396.292 396.291"
	 xml:space="preserve">
<g>
	<g>
		<g id="Layer_5_86_">
			<path fill="#FFFFFF" d="M43.23,97.943v204.656c0,28.026,0,93.693,55.323,93.693c0,0,76.064,0,102.836,0
				c24.815,0,33.403-0.684,48.791-22.57c4.038-5.745,7.18-11.286,18.892-28.771c20.008-29.871,78.557-115.788,78.557-115.788
				c9.037-12.27,6.772-31.002-6.592-38.313c-14.053-7.686-26.433,3.916-34.271,14.602c-8.269,11.271-19.621,28.135-27.483,38.752
				c-3.466,4.677-6.328,6.67-8.478,5.066c-2.589-1.932-2.484-13.468-2.484-18.836c-0.016-14.226-0.015-14.226-0.233-186.02
				c0-13.096-10.615-23.71-23.711-23.71c-13.094,0-23.709,10.614-23.709,23.71v122.857c0,4.365-3.539,7.906-7.906,7.906
				c-4.208,0-7.639-3.29-7.885-7.436c0-1.651-0.023-144.031-0.023-144.031C204.853,10.614,194.239,0,181.142,0
				c-13.085,0-23.694,10.604-23.705,23.688V167.27c0,4.365-3.702,7.906-8.265,7.906c-4.567,0-8.266-3.541-8.266-7.906v-0.039
				c-0.06-0.027,0-112.443,0-112.443c0-12.08-9.791-21.873-21.875-21.873c-12.068,0-21.854,9.78-21.869,21.851v112.505
				c0,4.365-3.924,7.906-8.766,7.906c-4.841,0-8.764-3.541-8.764-7.906V87.937c0-10.053-8.15-18.202-18.202-18.202
				C51.377,69.735,43.23,77.884,43.23,97.943z"/>
		</g>
	</g>
</g>
</svg>
